<svg xmlns="http://www.w3.org/2000/svg" xmlns:xlink="http://www.w3.org/1999/xlink" width="500" zoomAndPan="magnify" viewBox="0 0 375 374.999991" height="500" preserveAspectRatio="xMidYMid meet" version="1.0"><defs><clipPath id="d22e719f9e"><path d="M 0 23.4375 L 329 23.4375 L 329 351.9375 L 0 351.9375 Z M 0 23.4375 " clip-rule="nonzero"/></clipPath></defs><g clip-path="url(#d22e719f9e)"><path fill="#000000" d="M 313.695312 119.59375 L 307.605469 125.683594 L 301.503906 131.789062 C 308.589844 149.25 312.3125 168.089844 312.3125 187.5 C 312.3125 227.03125 296.914062 264.199219 268.960938 292.152344 C 241.007812 320.105469 203.839844 335.503906 164.308594 335.503906 C 124.773438 335.503906 87.609375 320.105469 59.652344 292.152344 C 31.699219 264.199219 16.304688 227.03125 16.304688 187.5 C 16.304688 147.96875 31.699219 110.800781 59.652344 82.847656 C 87.609375 54.890625 124.773438 39.496094 164.308594 39.496094 C 203.839844 39.496094 241.007812 54.890625 268.960938 82.847656 C 271.195312 85.082031 273.34375 87.382812 275.414062 89.730469 L 286.792969 78.351562 C 284.703125 76.015625 282.550781 73.71875 280.320312 71.488281 C 265.253906 56.425781 247.710938 44.59375 228.171875 36.332031 C 207.9375 27.773438 186.453125 23.4375 164.308594 23.4375 C 142.160156 23.4375 120.675781 27.773438 100.445312 36.332031 C 80.90625 44.59375 63.363281 56.425781 48.296875 71.488281 C 33.230469 86.554688 21.402344 104.097656 13.140625 123.636719 C 4.582031 143.867188 0.242188 165.355469 0.242188 187.5 C 0.242188 209.644531 4.582031 231.132812 13.140625 251.363281 C 21.402344 270.902344 33.230469 288.445312 48.296875 303.511719 C 63.363281 318.574219 80.90625 330.40625 100.445312 338.667969 C 120.675781 347.226562 142.160156 351.5625 164.308594 351.5625 C 186.453125 351.5625 207.9375 347.226562 228.171875 338.667969 C 247.710938 330.40625 265.253906 318.574219 280.320312 303.511719 C 295.382812 288.445312 307.210938 270.902344 315.476562 251.363281 C 324.035156 231.132812 328.371094 209.644531 328.371094 187.5 C 328.371094 165.355469 324.035156 143.867188 315.476562 123.636719 C 314.902344 122.277344 314.304688 120.929688 313.695312 119.59375 " fill-opacity="1" fill-rule="nonzero"/></g><path fill="#000000" d="M 371.609375 27.605469 C 370.042969 26.039062 367.988281 25.25 365.925781 25.25 C 363.875 25.25 361.820312 26.039062 360.253906 27.605469 L 148.019531 239.835938 L 99.558594 178.507812 C 96.808594 175.023438 91.757812 174.433594 88.277344 177.183594 C 84.796875 179.933594 84.207031 184.984375 86.957031 188.464844 L 141.015625 256.875 C 141.03125 256.898438 141.050781 256.914062 141.066406 256.9375 C 141.144531 257.03125 141.234375 257.121094 141.316406 257.214844 C 141.558594 257.488281 141.8125 257.742188 142.082031 257.972656 C 142.144531 258.027344 142.203125 258.085938 142.269531 258.140625 C 142.386719 258.234375 142.507812 258.320312 142.632812 258.410156 C 142.746094 258.492188 142.863281 258.578125 142.980469 258.65625 C 143.089844 258.722656 143.199219 258.785156 143.3125 258.851562 C 143.453125 258.929688 143.597656 259.011719 143.742188 259.082031 C 143.84375 259.136719 143.953125 259.183594 144.058594 259.230469 C 144.214844 259.296875 144.371094 259.363281 144.53125 259.421875 C 144.636719 259.460938 144.742188 259.5 144.847656 259.53125 C 145.011719 259.585938 145.175781 259.628906 145.339844 259.671875 C 145.449219 259.699219 145.558594 259.730469 145.667969 259.75 C 145.832031 259.785156 146 259.8125 146.167969 259.835938 C 146.28125 259.851562 146.390625 259.871094 146.503906 259.882812 C 146.679688 259.902344 146.859375 259.90625 147.039062 259.914062 C 147.136719 259.917969 147.226562 259.929688 147.320312 259.929688 C 147.570312 259.929688 147.820312 259.914062 148.070312 259.890625 C 148.09375 259.886719 148.121094 259.882812 148.144531 259.878906 C 148.359375 259.859375 148.570312 259.828125 148.78125 259.789062 C 148.847656 259.777344 148.910156 259.761719 148.972656 259.75 C 149.140625 259.714844 149.308594 259.675781 149.476562 259.628906 C 149.5625 259.605469 149.644531 259.578125 149.730469 259.554688 C 149.871094 259.507812 150.011719 259.460938 150.152344 259.40625 C 150.246094 259.371094 150.34375 259.332031 150.441406 259.292969 C 150.5625 259.242188 150.679688 259.183594 150.800781 259.125 C 150.90625 259.074219 151.011719 259.027344 151.117188 258.972656 C 151.222656 258.914062 151.328125 258.847656 151.433594 258.785156 C 151.621094 258.671875 151.804688 258.550781 151.988281 258.421875 C 152.089844 258.347656 152.195312 258.277344 152.296875 258.199219 C 152.304688 258.191406 152.316406 258.179688 152.328125 258.171875 C 152.4375 258.082031 152.542969 257.984375 152.648438 257.886719 C 152.753906 257.792969 152.863281 257.699219 152.964844 257.601562 C 152.976562 257.589844 152.988281 257.582031 152.996094 257.574219 L 371.609375 38.960938 C 374.75 35.828125 374.75 30.742188 371.609375 27.605469 " fill-opacity="1" fill-rule="nonzero"/></svg>