<svg xmlns="http://www.w3.org/2000/svg" xmlns:xlink="http://www.w3.org/1999/xlink" width="500" zoomAndPan="magnify" viewBox="0 0 375 374.999991" height="500" preserveAspectRatio="xMidYMid meet" version="1.0"><defs><clipPath id="7cfab697bd"><path d="M 0 0 L 375 0 L 375 373.5 L 0 373.5 Z M 0 0 " clip-rule="nonzero"/></clipPath></defs><g clip-path="url(#7cfab697bd)"><path fill="#ffffff" d="M 123.128906 55.96875 C 123.128906 42.445312 124.542969 29.246094 127.242188 16.511719 C 61.980469 42.429688 15.84375 106.214844 15.84375 180.777344 C 15.84375 278.34375 94.828125 357.414062 192.238281 357.414062 C 268.996094 357.414062 334.332031 308.3125 358.570312 239.730469 C 343.769531 243.449219 328.28125 245.425781 312.347656 245.425781 C 207.835938 245.425781 123.128906 160.59375 123.128906 55.96875 Z M 138.972656 55.96875 C 138.972656 151.863281 216.605469 229.585938 312.347656 229.585938 C 327.371094 229.585938 341.9375 227.671875 355.820312 224.082031 L 356.320312 223.964844 C 366.796875 221.640625 378.269531 231.128906 374.132812 243.207031 C 348.242188 318.851562 276.601562 373.257812 192.238281 373.257812 C 86.058594 373.257812 0 287.070312 0 180.777344 C 0 98.832031 51.136719 28.859375 123.1875 1.085938 L 123.753906 0.878906 C 135.632812 -3.230469 145.277344 8.171875 142.980469 18.675781 C 140.355469 30.679688 138.972656 43.160156 138.972656 55.96875 Z M 138.972656 55.96875 " fill-opacity="1" fill-rule="nonzero"/></g></svg>